<svg width="1920" height="1080" viewBox="0 0 1920 1080" fill="none" xmlns="http://www.w3.org/2000/svg">
<g clip-path="url(#clip0_502_41)">
<mask id="mask0_502_41" style="mask-type:luminance" maskUnits="userSpaceOnUse" x="0" y="0" width="1920" height="1080">
<path d="M1920 0H0V1080H1920V0Z" fill="white"/>
</mask>
<g mask="url(#mask0_502_41)">
<path d="M1920 0H0V1080H1920V0Z" fill="url(#paint0_linear_502_41)"/>
<path opacity="0.35" d="M239.5 1813C508.739 1813 727 1594.74 727 1325.5C727 1056.26 508.739 838 239.5 838C-29.7388 838 -248 1056.26 -248 1325.5C-248 1594.74 -29.7388 1813 239.5 1813Z" fill="url(#paint1_linear_502_41)"/>
<path opacity="0.29" d="M1870.69 203.185C2055.42 94.8778 2119.23 -142.541 2010.64 -327.767C1902.04 -512.994 1663.71 -573.275 1478.97 -464.968C1294.23 -356.661 1230.42 -119.242 1339.02 65.9846C1447.61 251.211 1685.95 311.492 1870.69 203.185Z" stroke="url(#paint2_linear_502_41)" stroke-width="238"/>
</g>
<path d="M388.182 384.636V501H361.818L319.773 439.864H319.091V501H287.5V384.636H314.318L355.682 445.545H356.591V384.636H388.182ZM403.58 501V413.727H434.943V501H403.58ZM419.261 404.636C415.019 404.636 411.383 403.235 408.352 400.432C405.322 397.629 403.807 394.258 403.807 390.318C403.807 386.379 405.322 383.008 408.352 380.205C411.383 377.402 415.019 376 419.261 376C423.542 376 427.178 377.402 430.17 380.205C433.201 383.008 434.716 386.379 434.716 390.318C434.716 394.258 433.201 397.629 430.17 400.432C427.178 403.235 423.542 404.636 419.261 404.636ZM530.696 442.136H501.832C501.681 440.356 501.056 438.822 499.957 437.534C498.859 436.246 497.438 435.261 495.696 434.58C493.991 433.86 492.098 433.5 490.014 433.5C487.325 433.5 485.014 433.992 483.082 434.977C481.151 435.962 480.204 437.364 480.241 439.182C480.204 440.47 480.753 441.663 481.889 442.761C483.063 443.86 485.317 444.712 488.651 445.318L506.378 448.5C515.317 450.129 521.965 452.875 526.321 456.739C530.715 460.564 532.931 465.697 532.969 472.136C532.931 478.348 531.075 483.746 527.401 488.33C523.764 492.875 518.783 496.398 512.457 498.898C506.17 501.36 498.991 502.591 490.923 502.591C477.59 502.591 467.154 499.864 459.616 494.409C452.116 488.955 447.931 481.758 447.06 472.818H478.196C478.613 475.583 479.976 477.723 482.287 479.239C484.635 480.716 487.59 481.455 491.151 481.455C494.029 481.455 496.397 480.962 498.253 479.977C500.147 478.992 501.113 477.591 501.151 475.773C501.113 474.106 500.279 472.78 498.651 471.795C497.06 470.811 494.56 470.015 491.151 469.409L475.696 466.682C466.795 465.129 460.128 462.174 455.696 457.818C451.264 453.462 449.067 447.856 449.105 441C449.067 434.939 450.658 429.807 453.878 425.602C457.135 421.36 461.776 418.14 467.798 415.943C473.859 413.708 481.037 412.591 489.332 412.591C501.946 412.591 511.889 415.205 519.162 420.432C526.473 425.659 530.317 432.894 530.696 442.136ZM576.349 451.909V501H544.986V384.636H575.213V430.318H576.122C578.092 424.75 581.368 420.413 585.952 417.307C590.535 414.163 596.046 412.591 602.486 412.591C608.66 412.591 614.02 413.992 618.565 416.795C623.149 419.598 626.69 423.462 629.19 428.386C631.728 433.311 632.978 438.955 632.94 445.318V501H601.577V451.909C601.615 447.591 600.535 444.201 598.338 441.739C596.179 439.277 593.092 438.045 589.077 438.045C586.539 438.045 584.304 438.614 582.372 439.75C580.478 440.848 579.001 442.439 577.94 444.523C576.918 446.568 576.387 449.03 576.349 451.909ZM672.741 502.364C667.173 502.364 662.249 501.455 657.969 499.636C653.726 497.78 650.393 494.977 647.969 491.227C645.545 487.477 644.332 482.705 644.332 476.909C644.332 472.136 645.147 468.064 646.776 464.693C648.404 461.284 650.677 458.5 653.594 456.341C656.51 454.182 659.901 452.534 663.764 451.398C667.666 450.261 671.87 449.523 676.378 449.182C681.264 448.803 685.185 448.348 688.139 447.818C691.132 447.25 693.291 446.473 694.616 445.489C695.942 444.466 696.605 443.121 696.605 441.455V441.227C696.605 438.955 695.734 437.212 693.991 436C692.249 434.788 690.014 434.182 687.287 434.182C684.295 434.182 681.851 434.845 679.957 436.17C678.101 437.458 676.984 439.447 676.605 442.136H647.741C648.12 436.833 649.806 431.947 652.798 427.477C655.829 422.97 660.241 419.371 666.037 416.682C671.832 413.955 679.067 412.591 687.741 412.591C693.991 412.591 699.598 413.33 704.56 414.807C709.522 416.246 713.745 418.273 717.23 420.886C720.715 423.462 723.366 426.492 725.185 429.977C727.041 433.424 727.969 437.174 727.969 441.227V501H698.651V488.727H697.969C696.226 491.985 694.105 494.617 691.605 496.625C689.143 498.633 686.321 500.091 683.139 501C679.995 501.909 676.529 502.364 672.741 502.364ZM682.969 482.591C685.355 482.591 687.59 482.098 689.673 481.114C691.795 480.129 693.518 478.708 694.844 476.852C696.17 474.996 696.832 472.742 696.832 470.091V462.818C695.999 463.159 695.109 463.481 694.162 463.784C693.253 464.087 692.268 464.371 691.207 464.636C690.185 464.902 689.086 465.148 687.912 465.375C686.776 465.602 685.582 465.811 684.332 466C681.908 466.379 679.92 467.004 678.366 467.875C676.851 468.708 675.715 469.75 674.957 471C674.238 472.212 673.878 473.576 673.878 475.091C673.878 477.515 674.73 479.371 676.435 480.659C678.139 481.947 680.317 482.591 682.969 482.591ZM774.318 451.909V501H742.955V413.727H772.727V430.318H773.636C775.53 424.788 778.864 420.451 783.636 417.307C788.447 414.163 794.053 412.591 800.455 412.591C806.629 412.591 811.989 414.011 816.534 416.852C821.117 419.655 824.659 423.519 827.159 428.443C829.697 433.367 830.947 438.992 830.909 445.318V501H799.545V451.909C799.583 447.591 798.485 444.201 796.25 441.739C794.053 439.277 790.985 438.045 787.045 438.045C784.47 438.045 782.216 438.614 780.284 439.75C778.39 440.848 776.932 442.439 775.909 444.523C774.886 446.568 774.356 449.03 774.318 451.909ZM898.438 413.727V436.455H840.938V413.727H898.438ZM852.074 392.818H883.438V472.932C883.438 474.144 883.646 475.167 884.062 476C884.479 476.795 885.123 477.402 885.994 477.818C886.866 478.197 887.983 478.386 889.347 478.386C890.294 478.386 891.392 478.273 892.642 478.045C893.93 477.818 894.877 477.629 895.483 477.477L900.028 499.523C898.627 499.939 896.619 500.451 894.006 501.057C891.43 501.663 888.362 502.061 884.801 502.25C877.604 502.629 871.563 501.89 866.676 500.034C861.79 498.14 858.116 495.167 855.653 491.114C853.191 487.061 851.998 481.985 852.074 475.886V392.818ZM1005.38 421C1005.08 417.212 1003.66 414.258 1001.12 412.136C998.622 410.015 994.815 408.955 989.702 408.955C986.444 408.955 983.774 409.352 981.69 410.148C979.645 410.905 978.13 411.947 977.145 413.273C976.16 414.598 975.649 416.114 975.611 417.818C975.535 419.22 975.781 420.489 976.349 421.625C976.955 422.723 977.902 423.727 979.19 424.636C980.478 425.508 982.126 426.303 984.134 427.023C986.141 427.742 988.527 428.386 991.293 428.955L1000.84 431C1007.28 432.364 1012.79 434.163 1017.37 436.398C1021.96 438.633 1025.71 441.265 1028.62 444.295C1031.54 447.288 1033.68 450.659 1035.04 454.409C1036.44 458.159 1037.16 462.25 1037.2 466.682C1037.16 474.333 1035.25 480.811 1031.46 486.114C1027.68 491.417 1022.26 495.451 1015.21 498.216C1008.21 500.981 999.777 502.364 989.929 502.364C979.815 502.364 970.99 500.867 963.452 497.875C955.952 494.883 950.118 490.28 945.952 484.068C941.823 477.818 939.74 469.826 939.702 460.091H969.702C969.891 463.652 970.781 466.644 972.372 469.068C973.963 471.492 976.198 473.33 979.077 474.58C981.993 475.83 985.459 476.455 989.474 476.455C992.846 476.455 995.668 476.038 997.94 475.205C1000.21 474.371 1001.94 473.216 1003.11 471.739C1004.29 470.261 1004.89 468.576 1004.93 466.682C1004.89 464.902 1004.3 463.348 1003.17 462.023C1002.07 460.659 1000.25 459.447 997.713 458.386C995.175 457.288 991.747 456.265 987.429 455.318L975.838 452.818C965.535 450.583 957.41 446.852 951.463 441.625C945.554 436.36 942.618 429.182 942.656 420.091C942.618 412.705 944.588 406.246 948.565 400.716C952.58 395.148 958.13 390.811 965.213 387.705C972.334 384.598 980.497 383.045 989.702 383.045C999.096 383.045 1007.22 384.617 1014.08 387.761C1020.93 390.905 1026.22 395.337 1029.93 401.057C1033.68 406.739 1035.57 413.386 1035.61 421H1005.38ZM1081.04 451.909V501H1049.67V384.636H1079.9V430.318H1080.81C1082.78 424.75 1086.06 420.413 1090.64 417.307C1095.22 414.163 1100.73 412.591 1107.17 412.591C1113.35 412.591 1118.71 413.992 1123.25 416.795C1127.84 419.598 1131.38 423.462 1133.88 428.386C1136.42 433.311 1137.67 438.955 1137.63 445.318V501H1106.26V451.909C1106.3 447.591 1105.22 444.201 1103.03 441.739C1100.87 439.277 1097.78 438.045 1093.76 438.045C1091.23 438.045 1088.99 438.614 1087.06 439.75C1085.17 440.848 1083.69 442.439 1082.63 444.523C1081.61 446.568 1081.07 449.03 1081.04 451.909ZM1194.93 502.591C1185.61 502.591 1177.58 500.811 1170.84 497.25C1164.13 493.652 1158.96 488.5 1155.33 481.795C1151.73 475.053 1149.93 466.985 1149.93 457.591C1149.93 448.576 1151.75 440.697 1155.38 433.955C1159.02 427.212 1164.15 421.966 1170.78 418.216C1177.41 414.466 1185.23 412.591 1194.25 412.591C1200.84 412.591 1206.8 413.614 1212.14 415.659C1217.49 417.705 1222.05 420.678 1225.84 424.58C1229.63 428.443 1232.54 433.14 1234.59 438.67C1236.63 444.201 1237.66 450.432 1237.66 457.364V464.636H1159.7V447.364H1208.79C1208.75 444.864 1208.11 442.667 1206.86 440.773C1205.65 438.841 1204 437.345 1201.92 436.284C1199.87 435.186 1197.54 434.636 1194.93 434.636C1192.39 434.636 1190.06 435.186 1187.94 436.284C1185.82 437.345 1184.11 438.822 1182.83 440.716C1181.58 442.61 1180.91 444.826 1180.84 447.364V466C1180.84 468.803 1181.43 471.303 1182.6 473.5C1183.77 475.697 1185.46 477.42 1187.66 478.67C1189.85 479.92 1192.5 480.545 1195.61 480.545C1197.77 480.545 1199.74 480.242 1201.52 479.636C1203.34 479.03 1204.89 478.159 1206.18 477.023C1207.47 475.848 1208.41 474.447 1209.02 472.818H1237.66C1236.67 478.879 1234.34 484.144 1230.67 488.614C1226.99 493.045 1222.13 496.492 1216.07 498.955C1210.04 501.379 1203 502.591 1194.93 502.591ZM1282.05 502.136C1275.83 502.136 1270.11 500.508 1264.89 497.25C1259.7 493.992 1255.53 489.049 1252.39 482.42C1249.28 475.792 1247.73 467.439 1247.73 457.364C1247.73 446.833 1249.36 438.273 1252.61 431.682C1255.91 425.091 1260.15 420.261 1265.34 417.193C1270.57 414.125 1276.06 412.591 1281.82 412.591C1286.14 412.591 1289.92 413.348 1293.18 414.864C1296.44 416.341 1299.17 418.33 1301.36 420.83C1303.56 423.292 1305.23 426 1306.36 428.955H1306.82V384.636H1338.18V501H1307.05V486.682H1306.36C1305.15 489.636 1303.41 492.288 1301.14 494.636C1298.9 496.947 1296.17 498.784 1292.95 500.148C1289.77 501.473 1286.14 502.136 1282.05 502.136ZM1293.64 478.045C1296.52 478.045 1298.98 477.212 1301.02 475.545C1303.11 473.841 1304.7 471.455 1305.8 468.386C1306.93 465.28 1307.5 461.606 1307.5 457.364C1307.5 453.045 1306.93 449.352 1305.8 446.284C1304.7 443.178 1303.11 440.811 1301.02 439.182C1298.98 437.515 1296.52 436.682 1293.64 436.682C1290.76 436.682 1288.3 437.515 1286.25 439.182C1284.24 440.811 1282.69 443.178 1281.59 446.284C1280.53 449.352 1280 453.045 1280 457.364C1280 461.682 1280.53 465.394 1281.59 468.5C1282.69 471.568 1284.24 473.936 1286.25 475.602C1288.3 477.231 1290.76 478.045 1293.64 478.045ZM1377.9 502.364C1372.33 502.364 1367.41 501.455 1363.12 499.636C1358.88 497.78 1355.55 494.977 1353.12 491.227C1350.7 487.477 1349.49 482.705 1349.49 476.909C1349.49 472.136 1350.3 468.064 1351.93 464.693C1353.56 461.284 1355.83 458.5 1358.75 456.341C1361.67 454.182 1365.06 452.534 1368.92 451.398C1372.82 450.261 1377.03 449.523 1381.53 449.182C1386.42 448.803 1390.34 448.348 1393.3 447.818C1396.29 447.25 1398.45 446.473 1399.77 445.489C1401.1 444.466 1401.76 443.121 1401.76 441.455V441.227C1401.76 438.955 1400.89 437.212 1399.15 436C1397.41 434.788 1395.17 434.182 1392.44 434.182C1389.45 434.182 1387.01 434.845 1385.11 436.17C1383.26 437.458 1382.14 439.447 1381.76 442.136H1352.9C1353.28 436.833 1354.96 431.947 1357.95 427.477C1360.98 422.97 1365.4 419.371 1371.19 416.682C1376.99 413.955 1384.22 412.591 1392.9 412.591C1399.15 412.591 1404.75 413.33 1409.72 414.807C1414.68 416.246 1418.9 418.273 1422.39 420.886C1425.87 423.462 1428.52 426.492 1430.34 429.977C1432.2 433.424 1433.12 437.174 1433.12 441.227V501H1403.81V488.727H1403.12C1401.38 491.985 1399.26 494.617 1396.76 496.625C1394.3 498.633 1391.48 500.091 1388.3 501C1385.15 501.909 1381.69 502.364 1377.9 502.364ZM1388.12 482.591C1390.51 482.591 1392.75 482.098 1394.83 481.114C1396.95 480.129 1398.67 478.708 1400 476.852C1401.33 474.996 1401.99 472.742 1401.99 470.091V462.818C1401.16 463.159 1400.27 463.481 1399.32 463.784C1398.41 464.087 1397.42 464.371 1396.36 464.636C1395.34 464.902 1394.24 465.148 1393.07 465.375C1391.93 465.602 1390.74 465.811 1389.49 466C1387.06 466.379 1385.08 467.004 1383.52 467.875C1382.01 468.708 1380.87 469.75 1380.11 471C1379.39 472.212 1379.03 473.576 1379.03 475.091C1379.03 477.515 1379.89 479.371 1381.59 480.659C1383.3 481.947 1385.47 482.591 1388.12 482.591ZM1490.16 535.545C1481.41 535.545 1473.91 534.295 1467.66 531.795C1461.44 529.333 1456.61 525.924 1453.17 521.568C1449.76 517.25 1447.85 512.288 1447.43 506.682H1477.66C1477.96 508.538 1478.72 510.034 1479.93 511.17C1481.14 512.307 1482.69 513.121 1484.59 513.614C1486.52 514.144 1488.68 514.409 1491.07 514.409C1495.12 514.409 1498.47 513.424 1501.12 511.455C1503.81 509.485 1505.16 505.924 1505.16 500.773V486H1504.25C1503.11 488.955 1501.37 491.473 1499.02 493.557C1496.67 495.602 1493.85 497.174 1490.55 498.273C1487.26 499.333 1483.64 499.864 1479.7 499.864C1473.49 499.864 1467.77 498.424 1462.54 495.545C1457.35 492.667 1453.19 488.102 1450.04 481.852C1446.94 475.602 1445.38 467.439 1445.38 457.364C1445.38 446.833 1447.01 438.273 1450.27 431.682C1453.57 425.091 1457.81 420.261 1463 417.193C1468.22 414.125 1473.72 412.591 1479.47 412.591C1483.79 412.591 1487.58 413.348 1490.84 414.864C1494.1 416.341 1496.82 418.33 1499.02 420.83C1501.22 423.292 1502.88 426 1504.02 428.955H1504.7V413.727H1536.07V500.773C1536.07 508.159 1534.15 514.428 1530.33 519.58C1526.54 524.769 1521.2 528.727 1514.3 531.455C1507.41 534.182 1499.36 535.545 1490.16 535.545ZM1491.29 477.591C1494.17 477.591 1496.63 476.795 1498.68 475.205C1500.76 473.576 1502.35 471.265 1503.45 468.273C1504.59 465.242 1505.16 461.606 1505.16 457.364C1505.16 453.045 1504.59 449.352 1503.45 446.284C1502.35 443.178 1500.76 440.811 1498.68 439.182C1496.63 437.515 1494.17 436.682 1491.29 436.682C1488.41 436.682 1485.95 437.515 1483.91 439.182C1481.9 440.811 1480.35 443.178 1479.25 446.284C1478.19 449.352 1477.66 453.045 1477.66 457.364C1477.66 461.682 1478.19 465.356 1479.25 468.386C1480.35 471.379 1481.9 473.67 1483.91 475.261C1485.95 476.814 1488.41 477.591 1491.29 477.591ZM1593.84 502.591C1584.52 502.591 1576.49 500.811 1569.74 497.25C1563.04 493.652 1557.87 488.5 1554.23 481.795C1550.63 475.053 1548.84 466.985 1548.84 457.591C1548.84 448.576 1550.65 440.697 1554.29 433.955C1557.93 427.212 1563.06 421.966 1569.69 418.216C1576.32 414.466 1584.14 412.591 1593.15 412.591C1599.74 412.591 1605.71 413.614 1611.05 415.659C1616.39 417.705 1620.96 420.678 1624.74 424.58C1628.53 428.443 1631.45 433.14 1633.49 438.67C1635.54 444.201 1636.56 450.432 1636.56 457.364V464.636H1558.61V447.364H1607.7C1607.66 444.864 1607.02 442.667 1605.77 440.773C1604.55 438.841 1602.91 437.345 1600.82 436.284C1598.78 435.186 1596.45 434.636 1593.84 434.636C1591.3 434.636 1588.97 435.186 1586.85 436.284C1584.73 437.345 1583.02 438.822 1581.73 440.716C1580.48 442.61 1579.82 444.826 1579.74 447.364V466C1579.74 468.803 1580.33 471.303 1581.51 473.5C1582.68 475.697 1584.37 477.42 1586.56 478.67C1588.76 479.92 1591.41 480.545 1594.52 480.545C1596.68 480.545 1598.65 480.242 1600.43 479.636C1602.24 479.03 1603.8 478.159 1605.09 477.023C1606.37 475.848 1607.32 474.447 1607.93 472.818H1636.56C1635.58 478.879 1633.25 484.144 1629.57 488.614C1625.9 493.045 1621.03 496.492 1614.97 498.955C1608.95 501.379 1601.9 502.591 1593.84 502.591Z" fill="white"/>
<path d="M401.249 727V643.364H454.829V656.064H416.4V678.77H451.153V691.471H416.4V727H401.249ZM504.029 700.619V664.273H518.812V727H504.478V715.851H503.824C502.409 719.363 500.081 722.236 496.841 724.468C493.628 726.701 489.667 727.817 484.957 727.817C480.846 727.817 477.212 726.905 474.053 725.081C470.922 723.229 468.472 720.548 466.703 717.036C464.933 713.496 464.048 709.222 464.048 704.212V664.273H478.831V701.925C478.831 705.9 479.92 709.058 482.098 711.4C484.276 713.741 487.135 714.912 490.674 714.912C492.852 714.912 494.962 714.381 497.004 713.319C499.046 712.257 500.721 710.678 502.027 708.582C503.361 706.458 504.029 703.804 504.029 700.619ZM548.797 643.364V727H534.014V643.364H548.797ZM578.783 643.364V727H563.999V643.364H578.783ZM668.616 666.355C668.235 662.789 666.629 660.012 663.797 658.025C660.993 656.037 657.345 655.043 652.853 655.043C649.694 655.043 646.986 655.52 644.726 656.473C642.466 657.426 640.737 658.719 639.539 660.352C638.342 661.986 637.729 663.851 637.702 665.947C637.702 667.69 638.096 669.201 638.886 670.48C639.703 671.76 640.805 672.849 642.194 673.747C643.582 674.618 645.121 675.353 646.809 675.952C648.497 676.551 650.198 677.055 651.913 677.463L659.754 679.424C662.912 680.159 665.948 681.152 668.861 682.405C671.801 683.657 674.429 685.236 676.743 687.142C679.084 689.048 680.936 691.348 682.297 694.044C683.658 696.739 684.339 699.897 684.339 703.518C684.339 708.419 683.086 712.734 680.582 716.464C678.077 720.166 674.456 723.066 669.719 725.162C665.009 727.231 659.305 728.266 652.608 728.266C646.101 728.266 640.451 727.259 635.66 725.244C630.895 723.229 627.165 720.289 624.47 716.423C621.802 712.557 620.359 707.847 620.141 702.293H635.047C635.265 705.206 636.163 707.629 637.743 709.562C639.322 711.495 641.377 712.938 643.909 713.891C646.468 714.844 649.327 715.32 652.485 715.32C655.779 715.32 658.665 714.83 661.143 713.85C663.647 712.843 665.608 711.454 667.023 709.685C668.439 707.888 669.161 705.791 669.188 703.396C669.161 701.218 668.521 699.421 667.268 698.005C666.016 696.562 664.26 695.364 662 694.411C659.768 693.431 657.154 692.56 654.159 691.798L644.644 689.347C637.756 687.578 632.311 684.896 628.309 681.302C624.334 677.681 622.347 672.876 622.347 666.886C622.347 661.959 623.681 657.643 626.349 653.941C629.044 650.238 632.706 647.366 637.334 645.324C641.962 643.255 647.203 642.22 653.057 642.22C658.992 642.22 664.192 643.255 668.657 645.324C673.149 647.366 676.675 650.211 679.234 653.859C681.793 657.48 683.114 661.645 683.195 666.355H668.616ZM728.515 664.273V675.707H692.455V664.273H728.515ZM701.358 649.244H716.141V708.133C716.141 710.12 716.441 711.645 717.04 712.707C717.666 713.741 718.483 714.449 719.49 714.83C720.497 715.211 721.614 715.402 722.839 715.402C723.765 715.402 724.609 715.334 725.371 715.198C726.16 715.062 726.759 714.939 727.168 714.83L729.659 726.387C728.869 726.66 727.739 726.959 726.269 727.286C724.826 727.613 723.057 727.803 720.96 727.858C717.258 727.967 713.923 727.408 710.955 726.183C707.987 724.931 705.632 722.998 703.89 720.384C702.175 717.771 701.331 714.504 701.358 710.583V649.244ZM758.93 728.266C754.955 728.266 751.374 727.558 748.189 726.142C745.031 724.699 742.526 722.576 740.675 719.772C738.851 716.967 737.939 713.51 737.939 709.399C737.939 705.859 738.592 702.933 739.899 700.619C741.206 698.304 742.989 696.453 745.249 695.065C747.508 693.676 750.054 692.628 752.885 691.92C755.744 691.185 758.698 690.654 761.747 690.327C765.423 689.946 768.404 689.606 770.691 689.306C772.978 688.98 774.639 688.49 775.673 687.836C776.735 687.156 777.266 686.107 777.266 684.692V684.447C777.266 681.37 776.354 678.988 774.53 677.3C772.706 675.612 770.078 674.768 766.648 674.768C763.027 674.768 760.155 675.558 758.031 677.137C755.935 678.716 754.519 680.581 753.784 682.732L739.981 680.771C741.07 676.96 742.867 673.774 745.371 671.215C747.876 668.629 750.939 666.696 754.56 665.416C758.181 664.109 762.183 663.456 766.566 663.456C769.588 663.456 772.597 663.81 775.591 664.518C778.586 665.226 781.322 666.396 783.8 668.03C786.277 669.636 788.265 671.828 789.762 674.605C791.287 677.382 792.049 680.853 792.049 685.018V727H777.838V718.383H777.347C776.449 720.126 775.183 721.759 773.55 723.284C771.943 724.781 769.915 725.993 767.465 726.918C765.042 727.817 762.197 728.266 758.93 728.266ZM762.768 717.403C765.736 717.403 768.309 716.818 770.487 715.647C772.665 714.449 774.339 712.87 775.51 710.91C776.708 708.95 777.307 706.812 777.307 704.498V697.107C776.844 697.488 776.054 697.842 774.938 698.168C773.849 698.495 772.624 698.781 771.263 699.026C769.901 699.271 768.554 699.489 767.22 699.679C765.886 699.87 764.729 700.033 763.748 700.169C761.543 700.469 759.569 700.959 757.827 701.64C756.084 702.32 754.71 703.273 753.702 704.498C752.695 705.696 752.191 707.248 752.191 709.154C752.191 711.876 753.185 713.932 755.172 715.32C757.16 716.709 759.692 717.403 762.768 717.403ZM834.276 728.225C828.014 728.225 822.637 726.85 818.145 724.1C813.68 721.351 810.236 717.553 807.813 712.707C805.417 707.833 804.219 702.225 804.219 695.881C804.219 689.511 805.444 683.889 807.894 679.015C810.345 674.115 813.802 670.303 818.267 667.581C822.759 664.831 828.068 663.456 834.194 663.456C839.285 663.456 843.791 664.395 847.711 666.274C851.659 668.125 854.804 670.752 857.145 674.156C859.486 677.531 860.82 681.479 861.147 685.999H847.017C846.445 682.977 845.084 680.458 842.933 678.444C840.81 676.402 837.965 675.381 834.398 675.381C831.376 675.381 828.722 676.197 826.435 677.831C824.148 679.437 822.365 681.751 821.085 684.773C819.833 687.795 819.206 691.416 819.206 695.636C819.206 699.911 819.833 703.586 821.085 706.663C822.337 709.712 824.093 712.067 826.353 713.728C828.64 715.361 831.322 716.178 834.398 716.178C836.576 716.178 838.523 715.77 840.238 714.953C841.981 714.109 843.437 712.897 844.608 711.318C845.778 709.739 846.582 707.82 847.017 705.56H861.147C860.793 709.998 859.486 713.932 857.227 717.362C854.967 720.765 851.891 723.433 847.997 725.366C844.104 727.272 839.53 728.225 834.276 728.225ZM886.763 707.316L886.722 689.47H889.091L911.633 664.273H928.908L901.179 695.146H898.116L886.763 707.316ZM873.286 727V643.364H888.07V727H873.286ZM912.654 727L892.235 698.454L902.2 688.04L930.337 727H912.654ZM996.28 727H967.939V643.364H996.852C1005.16 643.364 1012.29 645.038 1018.25 648.387C1024.24 651.708 1028.84 656.486 1032.05 662.721C1035.27 668.955 1036.87 676.415 1036.87 685.1C1036.87 693.812 1035.25 701.299 1032.01 707.561C1028.8 713.823 1024.16 718.628 1018.09 721.977C1012.04 725.326 1004.77 727 996.28 727ZM983.09 713.891H995.545C1001.37 713.891 1006.23 712.829 1010.12 710.706C1014.02 708.555 1016.94 705.356 1018.9 701.109C1020.86 696.834 1021.84 691.498 1021.84 685.1C1021.84 678.702 1020.86 673.393 1018.9 669.173C1016.94 664.926 1014.04 661.754 1010.21 659.658C1006.39 657.534 1001.66 656.473 995.994 656.473H983.09V713.891ZM1078.39 728.225C1072.1 728.225 1066.66 726.918 1062.09 724.305C1057.54 721.664 1054.05 717.934 1051.6 713.115C1049.15 708.269 1047.92 702.565 1047.92 696.004C1047.92 689.551 1049.15 683.889 1051.6 679.015C1054.07 674.115 1057.53 670.303 1061.97 667.581C1066.41 664.831 1071.62 663.456 1077.61 663.456C1081.48 663.456 1085.12 664.082 1088.55 665.335C1092.01 666.56 1095.06 668.465 1097.7 671.052C1100.37 673.638 1102.47 676.933 1103.99 680.935C1105.52 684.91 1106.28 689.647 1106.28 695.146V699.679H1054.86V689.715H1092.11C1092.08 686.883 1091.47 684.365 1090.27 682.16C1089.07 679.927 1087.4 678.171 1085.25 676.892C1083.12 675.612 1080.65 674.972 1077.81 674.972C1074.79 674.972 1072.14 675.707 1069.85 677.178C1067.56 678.621 1065.78 680.526 1064.5 682.895C1063.25 685.236 1062.61 687.809 1062.58 690.613V699.312C1062.58 702.96 1063.25 706.091 1064.58 708.705C1065.92 711.291 1067.78 713.278 1070.18 714.667C1072.57 716.028 1075.38 716.709 1078.59 716.709C1080.74 716.709 1082.69 716.409 1084.43 715.81C1086.17 715.184 1087.68 714.272 1088.96 713.074C1090.24 711.876 1091.21 710.393 1091.86 708.623L1105.67 710.175C1104.79 713.823 1103.13 717.008 1100.68 719.731C1098.26 722.426 1095.16 724.522 1091.37 726.02C1087.59 727.49 1083.26 728.225 1078.39 728.225ZM1173.02 664.273L1150.68 727H1134.34L1112.01 664.273H1127.77L1142.18 710.869H1142.84L1157.29 664.273H1173.02ZM1208.88 728.225C1202.59 728.225 1197.16 726.918 1192.59 724.305C1188.04 721.664 1184.54 717.934 1182.09 713.115C1179.64 708.269 1178.42 702.565 1178.42 696.004C1178.42 689.551 1179.64 683.889 1182.09 679.015C1184.57 674.115 1188.03 670.303 1192.47 667.581C1196.9 664.831 1202.12 663.456 1208.11 663.456C1211.97 663.456 1215.62 664.082 1219.05 665.335C1222.51 666.56 1225.56 668.465 1228.2 671.052C1230.87 673.638 1232.96 676.933 1234.49 680.935C1236.01 684.91 1236.78 689.647 1236.78 695.146V699.679H1185.36V689.715H1222.6C1222.58 686.883 1221.97 684.365 1220.77 682.16C1219.57 679.927 1217.89 678.171 1215.74 676.892C1213.62 675.612 1211.14 674.972 1208.31 674.972C1205.29 674.972 1202.64 675.707 1200.35 677.178C1198.06 678.621 1196.28 680.526 1195 682.895C1193.75 685.236 1193.11 687.809 1193.08 690.613V699.312C1193.08 702.96 1193.75 706.091 1195.08 708.705C1196.41 711.291 1198.28 713.278 1200.67 714.667C1203.07 716.028 1205.87 716.709 1209.09 716.709C1211.24 716.709 1213.18 716.409 1214.93 715.81C1216.67 715.184 1218.18 714.272 1219.46 713.074C1220.74 711.876 1221.71 710.393 1222.36 708.623L1236.16 710.175C1235.29 713.823 1233.63 717.008 1231.18 719.731C1228.76 722.426 1225.65 724.522 1221.87 726.02C1218.09 727.49 1213.76 728.225 1208.88 728.225ZM1264.07 643.364V727H1249.28V643.364H1264.07ZM1306.63 728.225C1300.5 728.225 1295.19 726.877 1290.7 724.182C1286.21 721.487 1282.73 717.716 1280.25 712.87C1277.8 708.024 1276.57 702.361 1276.57 695.881C1276.57 689.402 1277.8 683.725 1280.25 678.852C1282.73 673.979 1286.21 670.194 1290.7 667.499C1295.19 664.804 1300.5 663.456 1306.63 663.456C1312.75 663.456 1318.06 664.804 1322.56 667.499C1327.05 670.194 1330.52 673.979 1332.97 678.852C1335.45 683.725 1336.69 689.402 1336.69 695.881C1336.69 702.361 1335.45 708.024 1332.97 712.87C1330.52 717.716 1327.05 721.487 1322.56 724.182C1318.06 726.877 1312.75 728.225 1306.63 728.225ZM1306.71 716.382C1310.03 716.382 1312.81 715.47 1315.04 713.646C1317.27 711.795 1318.94 709.317 1320.02 706.213C1321.14 703.11 1321.7 699.652 1321.7 695.841C1321.7 692.002 1321.14 688.531 1320.02 685.427C1318.94 682.296 1317.27 679.805 1315.04 677.953C1312.81 676.102 1310.03 675.176 1306.71 675.176C1303.31 675.176 1300.48 676.102 1298.22 677.953C1295.98 679.805 1294.31 682.296 1293.19 685.427C1292.1 688.531 1291.56 692.002 1291.56 695.841C1291.56 699.652 1292.1 703.11 1293.19 706.213C1294.31 709.317 1295.98 711.795 1298.22 713.646C1300.48 715.47 1303.31 716.382 1306.71 716.382ZM1349.23 750.523V664.273H1363.77V674.646H1364.63C1365.39 673.121 1366.47 671.501 1367.86 669.786C1369.24 668.043 1371.12 666.56 1373.49 665.335C1375.86 664.082 1378.88 663.456 1382.56 663.456C1387.4 663.456 1391.77 664.695 1395.67 667.172C1399.59 669.623 1402.69 673.257 1404.98 678.076C1407.29 682.868 1408.45 688.748 1408.45 695.718C1408.45 702.606 1407.32 708.46 1405.06 713.278C1402.8 718.097 1399.72 721.773 1395.83 724.305C1391.94 726.837 1387.53 728.103 1382.6 728.103C1379 728.103 1376.02 727.504 1373.65 726.306C1371.29 725.108 1369.38 723.665 1367.94 721.977C1366.52 720.262 1365.42 718.642 1364.63 717.117H1364.02V750.523H1349.23ZM1363.73 695.636C1363.73 699.693 1364.3 703.246 1365.45 706.295C1366.62 709.344 1368.29 711.727 1370.47 713.442C1372.67 715.13 1375.34 715.974 1378.47 715.974C1381.74 715.974 1384.48 715.103 1386.68 713.36C1388.89 711.59 1390.55 709.181 1391.66 706.132C1392.81 703.055 1393.38 699.557 1393.38 695.636C1393.38 691.743 1392.82 688.286 1391.71 685.263C1390.59 682.241 1388.93 679.873 1386.72 678.158C1384.52 676.442 1381.77 675.585 1378.47 675.585C1375.32 675.585 1372.63 676.415 1370.43 678.076C1368.22 679.737 1366.55 682.065 1365.41 685.059C1364.29 688.054 1363.73 691.58 1363.73 695.636ZM1448.88 728.225C1442.59 728.225 1437.16 726.918 1432.58 724.305C1428.04 721.664 1424.54 717.934 1422.09 713.115C1419.64 708.269 1418.41 702.565 1418.41 696.004C1418.41 689.551 1419.64 683.889 1422.09 679.015C1424.57 674.115 1428.02 670.303 1432.46 667.581C1436.9 664.831 1442.11 663.456 1448.1 663.456C1451.97 663.456 1455.62 664.082 1459.05 665.335C1462.5 666.56 1465.55 668.465 1468.19 671.052C1470.86 673.638 1472.96 676.933 1474.48 680.935C1476.01 684.91 1476.77 689.647 1476.77 695.146V699.679H1425.36V689.715H1462.6C1462.57 686.883 1461.96 684.365 1460.76 682.16C1459.56 679.927 1457.89 678.171 1455.74 676.892C1453.62 675.612 1451.14 674.972 1448.31 674.972C1445.28 674.972 1442.63 675.707 1440.34 677.178C1438.06 678.621 1436.27 680.526 1434.99 682.895C1433.74 685.236 1433.1 687.809 1433.07 690.613V699.312C1433.07 702.96 1433.74 706.091 1435.08 708.705C1436.41 711.291 1438.27 713.278 1440.67 714.667C1443.07 716.028 1445.87 716.709 1449.08 716.709C1451.23 716.709 1453.18 716.409 1454.92 715.81C1456.66 715.184 1458.18 714.272 1459.46 713.074C1460.74 711.876 1461.7 710.393 1462.36 708.623L1476.16 710.175C1475.29 713.823 1473.63 717.008 1471.18 719.731C1468.75 722.426 1465.65 724.522 1461.86 726.02C1458.08 727.49 1453.75 728.225 1448.88 728.225ZM1489.28 727V664.273H1503.61V674.727H1504.27C1505.41 671.106 1507.37 668.316 1510.15 666.355C1512.95 664.368 1516.15 663.374 1519.74 663.374C1520.56 663.374 1521.47 663.415 1522.48 663.497C1523.51 663.551 1524.37 663.647 1525.05 663.783V677.382C1524.43 677.164 1523.43 676.973 1522.07 676.81C1520.74 676.619 1519.44 676.524 1518.19 676.524C1515.5 676.524 1513.07 677.109 1510.92 678.28C1508.8 679.424 1507.12 681.016 1505.9 683.058C1504.67 685.1 1504.06 687.455 1504.06 690.123V727H1489.28Z" fill="white"/>
</g>
<defs>
<linearGradient id="paint0_linear_502_41" x1="576" y1="-242" x2="1017" y2="1477.5" gradientUnits="userSpaceOnUse">
<stop/>
<stop offset="0.515625" stop-color="#232727"/>
<stop offset="1"/>
</linearGradient>
<linearGradient id="paint1_linear_502_41" x1="727" y1="683.427" x2="-200.499" y2="2030.02" gradientUnits="userSpaceOnUse">
<stop/>
<stop offset="0.515625" stop-color="#828989"/>
<stop offset="1" stop-color="#CFF1F1"/>
</linearGradient>
<linearGradient id="paint2_linear_502_41" x1="1539.15" y1="-362.309" x2="1847.92" y2="438.888" gradientUnits="userSpaceOnUse">
<stop stop-color="white"/>
<stop offset="1" stop-color="white" stop-opacity="0"/>
</linearGradient>
<clipPath id="clip0_502_41">
<rect width="1920" height="1080" fill="white"/>
</clipPath>
</defs>
</svg>
